<svg xmlns="http://www.w3.org/2000/svg" width="1920" height="1080"><path d="M-206,-173L274,-166L505,-177Z" fill="#e6f5e1" stroke="#e6f5e1" stroke-width="1.51"/><path d="M227,1232L-12,1260L524,1220Z" fill="#6f9e72" stroke="#6f9e72" stroke-width="1.51"/><path d="M-206,-173L505,-177L1198,-216Z" fill="#d5efcf" stroke="#d5efcf" stroke-width="1.51"/><path d="M787,1218L524,1220L1206,1278Z" fill="#498e51" stroke="#498e51" stroke-width="1.51"/><path d="M524,1220L-12,1260L1206,1278Z" fill="#5c945f" stroke="#5c945f" stroke-width="1.51"/><path d="M-12,1260L-176,1276L1206,1278Z" fill="#69986c" stroke="#69986c" stroke-width="1.51"/><path d="M1502,1225L1206,1278L1656,1226Z" fill="#187336" stroke="#187336" stroke-width="1.51"/><path d="M1748,-199L1967,-132L2061,-116Z" fill="#81ac85" stroke="#81ac85" stroke-width="1.51"/><path d="M1656,1226L1206,1278L2080,1249Z" fill="#0c682e" stroke="#0c682e" stroke-width="1.51"/><path d="M1994,1196L1778,1201L2080,1249Z" fill="#005b24" stroke="#005b24" stroke-width="1.51"/><path d="M1778,1201L1656,1226L2080,1249Z" fill="#016227" stroke="#016227" stroke-width="1.51"/><path d="M2042,-39L1968,-13L2120,162Z" fill="#729e75" stroke="#729e75" stroke-width="1.51"/><path d="M1968,-13L1908,126L2120,162Z" fill="#70a072" stroke="#70a072" stroke-width="1.51"/><path d="M2061,-116L2042,-39L2120,162Z" fill="#749d76" stroke="#749d76" stroke-width="1.51"/><path d="M2045,395L2095,557L2120,162Z" fill="#528e57" stroke="#528e57" stroke-width="1.51"/><path d="M2072,223L2045,395L2120,162Z" fill="#5d9462" stroke="#5d9462" stroke-width="1.51"/><path d="M2103,847L1925,988L2128,1014Z" fill="#0f6b31" stroke="#0f6b31" stroke-width="1.51"/><path d="M2128,1014L1917,1053L2130,1091Z" fill="#06632a" stroke="#06632a" stroke-width="1.51"/><path d="M1994,1196L2080,1249L2130,1091Z" fill="#005723" stroke="#005723" stroke-width="1.51"/><path d="M1994,706L2103,847L2134,701Z" fill="#207a3c" stroke="#207a3c" stroke-width="1.51"/><path d="M2095,557L1994,706L2134,701Z" fill="#2e8041" stroke="#2e8041" stroke-width="1.51"/><path d="M2120,162L2095,557L2134,701Z" fill="#45874d" stroke="#45874d" stroke-width="1.51"/><path d="M2103,847L2128,1014L2134,701Z" fill="#186e35" stroke="#186e35" stroke-width="1.51"/><path d="M2128,1014L2130,1091L2134,701Z" fill="#10672f" stroke="#10672f" stroke-width="1.51"/><path d="M1917,1053L1994,1196L2130,1091Z" fill="#006228" stroke="#006228" stroke-width="1.51"/><path d="M1925,988L1917,1053L2128,1014Z" fill="#0a6b2e" stroke="#0a6b2e" stroke-width="1.51"/><path d="M505,-177L771,-149L1198,-216Z" fill="#bee4bb" stroke="#bee4bb" stroke-width="1.51"/><path d="M1908,126L2072,223L2120,162Z" fill="#689b6b" stroke="#689b6b" stroke-width="1.51"/><path d="M2045,395L1917,494L2095,557Z" fill="#478e4f" stroke="#478e4f" stroke-width="1.51"/><path d="M1994,706L1922,790L2103,847Z" fill="#1f7c3c" stroke="#1f7c3c" stroke-width="1.51"/><path d="M1922,790L1925,988L2103,847Z" fill="#177637" stroke="#177637" stroke-width="1.51"/><path d="M1907,224L1892,352L2045,395Z" fill="#5b9b60" stroke="#5b9b60" stroke-width="1.51"/><path d="M1907,224L2045,395L2072,223Z" fill="#5e9962" stroke="#5e9962" stroke-width="1.51"/><path d="M1917,494L1994,706L2095,557Z" fill="#3a8948" stroke="#3a8948" stroke-width="1.51"/><path d="M1908,126L1907,224L2072,223Z" fill="#689f6c" stroke="#689f6c" stroke-width="1.51"/><path d="M1967,-132L2042,-39L2061,-116Z" fill="#7ba37e" stroke="#7ba37e" stroke-width="1.51"/><path d="M1967,-132L1968,-13L2042,-39Z" fill="#7ba57e" stroke="#7ba57e" stroke-width="1.51"/><path d="M1892,352L1917,494L2045,395Z" fill="#519758" stroke="#519758" stroke-width="1.51"/><path d="M1922,790L1826,866L1925,988Z" fill="#187d3a" stroke="#187d3a" stroke-width="1.51"/><path d="M1917,1053L1799,1093L1994,1196Z" fill="#006a2a" stroke="#006a2a" stroke-width="1.51"/><path d="M1799,1093L1778,1201L1994,1196Z" fill="#00672a" stroke="#00672a" stroke-width="1.51"/><path d="M1805,652L1922,790L1994,706Z" fill="#288843" stroke="#288843" stroke-width="1.51"/><path d="M1917,494L1805,652L1994,706Z" fill="#378e49" stroke="#378e49" stroke-width="1.51"/><path d="M1826,866L1814,933L1925,988Z" fill="#137b38" stroke="#137b38" stroke-width="1.51"/><path d="M1748,-199L1748,29L1967,-132Z" fill="#83b287" stroke="#83b287" stroke-width="1.51"/><path d="M1967,-132L1748,29L1968,-13Z" fill="#7dac81" stroke="#7dac81" stroke-width="1.51"/><path d="M1748,29L1908,126L1968,-13Z" fill="#77ac7b" stroke="#77ac7b" stroke-width="1.51"/><path d="M1801,400L1842,484L1892,352Z" fill="#549f5c" stroke="#549f5c" stroke-width="1.51"/><path d="M1759,294L1892,352L1907,224Z" fill="#61a467" stroke="#61a467" stroke-width="1.51"/><path d="M1748,29L1757,79L1908,126Z" fill="#78af7b" stroke="#78af7b" stroke-width="1.51"/><path d="M1814,933L1799,1093L1917,1053Z" fill="#0a7432" stroke="#0a7432" stroke-width="1.51"/><path d="M1842,484L1805,652L1917,494Z" fill="#439850" stroke="#439850" stroke-width="1.51"/><path d="M1892,352L1842,484L1917,494Z" fill="#4f9b57" stroke="#4f9b57" stroke-width="1.51"/><path d="M1805,652L1826,866L1922,790Z" fill="#238942" stroke="#238942" stroke-width="1.51"/><path d="M1814,933L1917,1053L1925,988Z" fill="#0d7433" stroke="#0d7433" stroke-width="1.51"/><path d="M1757,79L1907,224L1908,126Z" fill="#70aa74" stroke="#70aa74" stroke-width="1.51"/><path d="M1757,79L1759,294L1907,224Z" fill="#6caa71" stroke="#6caa71" stroke-width="1.51"/><path d="M1748,-199L1665,-55L1748,29Z" fill="#86b78a" stroke="#86b78a" stroke-width="1.51"/><path d="M1757,79L1696,244L1759,294Z" fill="#6fae74" stroke="#6fae74" stroke-width="1.51"/><path d="M1759,294L1801,400L1892,352Z" fill="#5da363" stroke="#5da363" stroke-width="1.51"/><path d="M1198,-216L1353,-146L1676,-209Z" fill="#98cb9f" stroke="#98cb9f" stroke-width="1.51"/><path d="M1667,940L1799,1093L1814,933Z" fill="#137b38" stroke="#137b38" stroke-width="1.51"/><path d="M1805,652L1666,663L1826,866Z" fill="#2b9148" stroke="#2b9148" stroke-width="1.51"/><path d="M1666,663L1630,828L1826,866Z" fill="#288e47" stroke="#288e47" stroke-width="1.51"/><path d="M1673,487L1805,652L1842,484Z" fill="#469c54" stroke="#469c54" stroke-width="1.51"/><path d="M1801,400L1673,487L1842,484Z" fill="#51a05b" stroke="#51a05b" stroke-width="1.51"/><path d="M1667,940L1669,1103L1799,1093Z" fill="#127936" stroke="#127936" stroke-width="1.51"/><path d="M1673,487L1666,663L1805,652Z" fill="#409b52" stroke="#409b52" stroke-width="1.51"/><path d="M1667,940L1814,933L1826,866Z" fill="#1a813c" stroke="#1a813c" stroke-width="1.51"/><path d="M1630,828L1667,940L1826,866Z" fill="#208741" stroke="#208741" stroke-width="1.51"/><path d="M1656,110L1696,244L1757,79Z" fill="#76b27b" stroke="#76b27b" stroke-width="1.51"/><path d="M1669,1103L1778,1201L1799,1093Z" fill="#077030" stroke="#077030" stroke-width="1.51"/><path d="M1759,294L1652,403L1801,400Z" fill="#5ea765" stroke="#5ea765" stroke-width="1.51"/><path d="M1652,403L1673,487L1801,400Z" fill="#57a560" stroke="#57a560" stroke-width="1.51"/><path d="M1676,-209L1665,-55L1748,-199Z" fill="#8bba8f" stroke="#8bba8f" stroke-width="1.51"/><path d="M1669,1103L1656,1226L1778,1201Z" fill="#0a6e30" stroke="#0a6e30" stroke-width="1.51"/><path d="M1696,244L1652,403L1759,294Z" fill="#65ab6b" stroke="#65ab6b" stroke-width="1.51"/><path d="M1748,29L1656,110L1757,79Z" fill="#7bb380" stroke="#7bb380" stroke-width="1.51"/><path d="M1665,-55L1656,110L1748,29Z" fill="#80b685" stroke="#80b685" stroke-width="1.51"/><path d="M1531,-45L1656,110L1665,-55Z" fill="#85bb8a" stroke="#85bb8a" stroke-width="1.51"/><path d="M1550,728L1630,828L1666,663Z" fill="#2f974e" stroke="#2f974e" stroke-width="1.51"/><path d="M1554,942L1539,1056L1667,940Z" fill="#1e8540" stroke="#1e8540" stroke-width="1.51"/><path d="M1667,940L1539,1056L1669,1103Z" fill="#177f3b" stroke="#177f3b" stroke-width="1.51"/><path d="M1548,576L1666,663L1673,487Z" fill="#47a157" stroke="#47a157" stroke-width="1.51"/><path d="M1353,-146L1526,-118L1676,-209Z" fill="#92c498" stroke="#92c498" stroke-width="1.51"/><path d="M1526,-118L1665,-55L1676,-209Z" fill="#8cbe91" stroke="#8cbe91" stroke-width="1.51"/><path d="M1575,300L1652,403L1696,244Z" fill="#67ae6e" stroke="#67ae6e" stroke-width="1.51"/><path d="M1656,110L1574,135L1696,244Z" fill="#77b47c" stroke="#77b47c" stroke-width="1.51"/><path d="M1574,135L1575,300L1696,244Z" fill="#71b377" stroke="#71b377" stroke-width="1.51"/><path d="M771,-149L984,-153L1198,-216Z" fill="#b3deb0" stroke="#b3deb0" stroke-width="1.51"/><path d="M1531,-45L1574,135L1656,110Z" fill="#81bb86" stroke="#81bb86" stroke-width="1.51"/><path d="M1630,828L1554,942L1667,940Z" fill="#228a44" stroke="#228a44" stroke-width="1.51"/><path d="M1502,1225L1656,1226L1669,1103Z" fill="#107133" stroke="#107133" stroke-width="1.51"/><path d="M1539,1056L1502,1225L1669,1103Z" fill="#137a37" stroke="#137a37" stroke-width="1.51"/><path d="M1575,300L1550,377L1652,403Z" fill="#64af6c" stroke="#64af6c" stroke-width="1.51"/><path d="M1652,403L1550,377L1673,487Z" fill="#5baa65" stroke="#5baa65" stroke-width="1.51"/><path d="M1550,377L1548,576L1673,487Z" fill="#55a961" stroke="#55a961" stroke-width="1.51"/><path d="M1359,1206L1206,1278L1502,1225Z" fill="#1e783a" stroke="#1e783a" stroke-width="1.51"/><path d="M1526,-118L1531,-45L1665,-55Z" fill="#8bbf91" stroke="#8bbf91" stroke-width="1.51"/><path d="M1548,576L1550,728L1666,663Z" fill="#3d9e54" stroke="#3d9e54" stroke-width="1.51"/><path d="M1525,841L1554,942L1630,828Z" fill="#278e48" stroke="#278e48" stroke-width="1.51"/><path d="M1550,728L1525,841L1630,828Z" fill="#2d954c" stroke="#2d954c" stroke-width="1.51"/><path d="M1548,576L1433,728L1550,728Z" fill="#3ea156" stroke="#3ea156" stroke-width="1.51"/><path d="M1429,430L1548,576L1550,377Z" fill="#5bae66" stroke="#5bae66" stroke-width="1.51"/><path d="M1531,-45L1410,22L1574,135Z" fill="#86c08c" stroke="#86c08c" stroke-width="1.51"/><path d="M1429,430L1550,377L1575,300Z" fill="#66b36f" stroke="#66b36f" stroke-width="1.51"/><path d="M1348,210L1429,430L1575,300Z" fill="#6fb977" stroke="#6fb977" stroke-width="1.51"/><path d="M1574,135L1348,210L1575,300Z" fill="#77ba7d" stroke="#77ba7d" stroke-width="1.51"/><path d="M1410,22L1353,70L1574,135Z" fill="#86c28c" stroke="#86c28c" stroke-width="1.51"/><path d="M1353,70L1348,210L1574,135Z" fill="#83c188" stroke="#83c188" stroke-width="1.51"/><path d="M1347,1115L1502,1225L1539,1056Z" fill="#1a7f3b" stroke="#1a7f3b" stroke-width="1.51"/><path d="M1387,580L1433,728L1548,576Z" fill="#47a75b" stroke="#47a75b" stroke-width="1.51"/><path d="M1429,430L1387,580L1548,576Z" fill="#55ad62" stroke="#55ad62" stroke-width="1.51"/><path d="M1433,728L1525,841L1550,728Z" fill="#339b51" stroke="#339b51" stroke-width="1.51"/><path d="M1357,973L1539,1056L1554,942Z" fill="#228a43" stroke="#228a43" stroke-width="1.51"/><path d="M1525,841L1357,973L1554,942Z" fill="#288f48" stroke="#288f48" stroke-width="1.51"/><path d="M1357,973L1347,1115L1539,1056Z" fill="#228942" stroke="#228942" stroke-width="1.51"/><path d="M1347,1115L1359,1206L1502,1225Z" fill="#1c7c3b" stroke="#1c7c3b" stroke-width="1.51"/><path d="M1358,782L1357,973L1525,841Z" fill="#30974e" stroke="#30974e" stroke-width="1.51"/><path d="M1353,-146L1410,22L1526,-118Z" fill="#92c898" stroke="#92c898" stroke-width="1.51"/><path d="M1526,-118L1410,22L1531,-45Z" fill="#8ec393" stroke="#8ec393" stroke-width="1.51"/><path d="M1433,728L1358,782L1525,841Z" fill="#349c52" stroke="#349c52" stroke-width="1.51"/><path d="M998,1207L787,1218L1206,1278Z" fill="#3c8949" stroke="#3c8949" stroke-width="1.51"/><path d="M1273,943L1357,973L1358,782Z" fill="#31994f" stroke="#31994f" stroke-width="1.51"/><path d="M1353,-146L1239,0L1410,22Z" fill="#95cc9a" stroke="#95cc9a" stroke-width="1.51"/><path d="M1277,494L1387,580L1429,430Z" fill="#5cb368" stroke="#5cb368" stroke-width="1.51"/><path d="M1293,416L1277,494L1429,430Z" fill="#65b86f" stroke="#65b86f" stroke-width="1.51"/><path d="M1348,210L1293,416L1429,430Z" fill="#6fbc77" stroke="#6fbc77" stroke-width="1.51"/><path d="M1387,580L1358,782L1433,728Z" fill="#40a65a" stroke="#40a65a" stroke-width="1.51"/><path d="M1189,655L1358,782L1387,580Z" fill="#47ac5f" stroke="#47ac5f" stroke-width="1.51"/><path d="M1291,209L1293,416L1348,210Z" fill="#79c280" stroke="#79c280" stroke-width="1.51"/><path d="M1239,0L1353,70L1410,22Z" fill="#8fca94" stroke="#8fca94" stroke-width="1.51"/><path d="M1257,114L1291,209L1348,210Z" fill="#84c78a" stroke="#84c78a" stroke-width="1.51"/><path d="M1257,114L1348,210L1353,70Z" fill="#88c78d" stroke="#88c78d" stroke-width="1.51"/><path d="M1276,1087L1347,1115L1357,973Z" fill="#268c45" stroke="#268c45" stroke-width="1.51"/><path d="M1277,494L1189,655L1387,580Z" fill="#56b366" stroke="#56b366" stroke-width="1.51"/><path d="M1273,943L1276,1087L1357,973Z" fill="#2c924a" stroke="#2c924a" stroke-width="1.51"/><path d="M1192,842L1273,943L1358,782Z" fill="#379f55" stroke="#379f55" stroke-width="1.51"/><path d="M1189,655L1192,842L1358,782Z" fill="#40a95c" stroke="#40a95c" stroke-width="1.51"/><path d="M1347,1115L1276,1087L1359,1206Z" fill="#218540" stroke="#218540" stroke-width="1.51"/><path d="M1276,1087L1206,1278L1359,1206Z" fill="#23823f" stroke="#23823f" stroke-width="1.51"/><path d="M1198,-216L1239,0L1353,-146Z" fill="#9cd1a1" stroke="#9cd1a1" stroke-width="1.51"/><path d="M1239,0L1257,114L1353,70Z" fill="#8fcc94" stroke="#8fcc94" stroke-width="1.51"/><path d="M1291,209L1128,255L1293,416Z" fill="#7cc682" stroke="#7cc682" stroke-width="1.51"/><path d="M1198,-216L1089,-142L1239,0Z" fill="#a2d5a5" stroke="#a2d5a5" stroke-width="1.51"/><path d="M1061,1197L1206,1278L1276,1087Z" fill="#2c8644" stroke="#2c8644" stroke-width="1.51"/><path d="M1273,943L1059,1054L1276,1087Z" fill="#32954c" stroke="#32954c" stroke-width="1.51"/><path d="M1123,497L1189,655L1277,494Z" fill="#60b96b" stroke="#60b96b" stroke-width="1.51"/><path d="M1257,114L1128,255L1291,209Z" fill="#87ca8c" stroke="#87ca8c" stroke-width="1.51"/><path d="M1108,443L1277,494L1293,416Z" fill="#6abe73" stroke="#6abe73" stroke-width="1.51"/><path d="M1128,255L1108,443L1293,416Z" fill="#78c47d" stroke="#78c47d" stroke-width="1.51"/><path d="M1089,-142L1071,-61L1239,0Z" fill="#a3d6a4" stroke="#a3d6a4" stroke-width="1.51"/><path d="M1076,930L1059,1054L1273,943Z" fill="#3c9c52" stroke="#3c9c52" stroke-width="1.51"/><path d="M1059,1054L1061,1197L1276,1087Z" fill="#349149" stroke="#349149" stroke-width="1.51"/><path d="M1108,443L1123,497L1277,494Z" fill="#6bbf73" stroke="#6bbf73" stroke-width="1.51"/><path d="M1192,842L1076,930L1273,943Z" fill="#3c9f55" stroke="#3c9f55" stroke-width="1.51"/><path d="M1189,655L1100,672L1192,842Z" fill="#4caf61" stroke="#4caf61" stroke-width="1.51"/><path d="M1239,0L1058,131L1257,114Z" fill="#94d097" stroke="#94d097" stroke-width="1.51"/><path d="M1058,131L1128,255L1257,114Z" fill="#8fce91" stroke="#8fce91" stroke-width="1.51"/><path d="M1071,-61L1058,131L1239,0Z" fill="#9ed49e" stroke="#9ed49e" stroke-width="1.51"/><path d="M1123,497L1100,672L1189,655Z" fill="#5db86a" stroke="#5db86a" stroke-width="1.51"/><path d="M1100,672L1050,837L1192,842Z" fill="#4bac60" stroke="#4bac60" stroke-width="1.51"/><path d="M984,-153L1089,-142L1198,-216Z" fill="#abdaab" stroke="#abdaab" stroke-width="1.51"/><path d="M1061,1197L998,1207L1206,1278Z" fill="#348545" stroke="#348545" stroke-width="1.51"/><path d="M1050,837L1076,930L1192,842Z" fill="#45a65b" stroke="#45a65b" stroke-width="1.51"/><path d="M1059,1054L1000,1123L1061,1197Z" fill="#3c934c" stroke="#3c934c" stroke-width="1.51"/><path d="M953,-4L1058,131L1071,-61Z" fill="#a4d8a2" stroke="#a4d8a2" stroke-width="1.51"/><path d="M1006,798L1050,837L1100,672Z" fill="#51b063" stroke="#51b063" stroke-width="1.51"/><path d="M928,505L1100,672L1123,497Z" fill="#6bbf71" stroke="#6bbf71" stroke-width="1.51"/><path d="M1058,131L993,153L1128,255Z" fill="#95d294" stroke="#95d294" stroke-width="1.51"/><path d="M993,153L945,257L1128,255Z" fill="#93d192" stroke="#93d192" stroke-width="1.51"/><path d="M945,347L1108,443L1128,255Z" fill="#83cb84" stroke="#83cb84" stroke-width="1.51"/><path d="M945,257L945,347L1128,255Z" fill="#8ecf8c" stroke="#8ecf8c" stroke-width="1.51"/><path d="M1108,443L928,505L1123,497Z" fill="#74c377" stroke="#74c377" stroke-width="1.51"/><path d="M928,505L916,691L1100,672Z" fill="#68bd6f" stroke="#68bd6f" stroke-width="1.51"/><path d="M945,347L928,505L1108,443Z" fill="#7fc97f" stroke="#7fc97f" stroke-width="1.51"/><path d="M1010,920L1059,1054L1076,930Z" fill="#44a056" stroke="#44a056" stroke-width="1.51"/><path d="M916,691L1006,798L1100,672Z" fill="#5ab668" stroke="#5ab668" stroke-width="1.51"/><path d="M1050,837L1010,920L1076,930Z" fill="#49a65c" stroke="#49a65c" stroke-width="1.51"/><path d="M984,-153L1071,-61L1089,-142Z" fill="#acdbab" stroke="#acdbab" stroke-width="1.51"/><path d="M394,1209L227,1232L524,1220Z" fill="#699d6c" stroke="#699d6c" stroke-width="1.51"/><path d="M953,-4L993,153L1058,131Z" fill="#a0d79d" stroke="#a0d79d" stroke-width="1.51"/><path d="M1000,1123L998,1207L1061,1197Z" fill="#3c8e4b" stroke="#3c8e4b" stroke-width="1.51"/><path d="M984,-153L953,-4L1071,-61Z" fill="#acdbaa" stroke="#acdbaa" stroke-width="1.51"/><path d="M1010,920L1000,1123L1059,1054Z" fill="#439c53" stroke="#439c53" stroke-width="1.51"/><path d="M1006,798L1010,920L1050,837Z" fill="#4eab5f" stroke="#4eab5f" stroke-width="1.51"/><path d="M-206,-173L-3,-141L274,-166Z" fill="#ecf8e8" stroke="#ecf8e8" stroke-width="1.51"/><path d="M953,-4L832,72L993,153Z" fill="#a8daa3" stroke="#a8daa3" stroke-width="1.51"/><path d="M822,856L777,923L1010,920Z" fill="#58ac64" stroke="#58ac64" stroke-width="1.51"/><path d="M809,1132L1000,1123L1010,920Z" fill="#489d56" stroke="#489d56" stroke-width="1.51"/><path d="M777,923L809,1132L1010,920Z" fill="#53a55e" stroke="#53a55e" stroke-width="1.51"/><path d="M1006,798L822,856L1010,920Z" fill="#54ad62" stroke="#54ad62" stroke-width="1.51"/><path d="M862,380L928,505L945,347Z" fill="#88cd85" stroke="#88cd85" stroke-width="1.51"/><path d="M809,1132L998,1207L1000,1123Z" fill="#449450" stroke="#449450" stroke-width="1.51"/><path d="M916,691L822,856L1006,798Z" fill="#5cb569" stroke="#5cb569" stroke-width="1.51"/><path d="M800,-30L953,-4L984,-153Z" fill="#b2dfaf" stroke="#b2dfaf" stroke-width="1.51"/><path d="M809,1132L787,1218L998,1207Z" fill="#499352" stroke="#499352" stroke-width="1.51"/><path d="M832,72L945,257L993,153Z" fill="#a1d89d" stroke="#a1d89d" stroke-width="1.51"/><path d="M771,-149L800,-30L984,-153Z" fill="#bae2b5" stroke="#bae2b5" stroke-width="1.51"/><path d="M823,678L822,856L916,691Z" fill="#64ba6f" stroke="#64ba6f" stroke-width="1.51"/><path d="M823,678L916,691L928,505Z" fill="#6fc175" stroke="#6fc175" stroke-width="1.51"/><path d="M764,508L823,678L928,505Z" fill="#7bc77c" stroke="#7bc77c" stroke-width="1.51"/><path d="M832,72L816,269L945,257Z" fill="#a1d89c" stroke="#a1d89c" stroke-width="1.51"/><path d="M945,257L816,269L945,347Z" fill="#95d391" stroke="#95d391" stroke-width="1.51"/><path d="M816,269L862,380L945,347Z" fill="#93d28f" stroke="#93d28f" stroke-width="1.51"/><path d="M800,-30L832,72L953,-4Z" fill="#b1dfad" stroke="#b1dfad" stroke-width="1.51"/><path d="M720,1194L524,1220L787,1218Z" fill="#56965c" stroke="#56965c" stroke-width="1.51"/><path d="M862,380L764,508L928,505Z" fill="#86cc84" stroke="#86cc84" stroke-width="1.51"/><path d="M777,923L696,957L809,1132Z" fill="#5aa864" stroke="#5aa864" stroke-width="1.51"/><path d="M714,787L822,856L823,678Z" fill="#68ba72" stroke="#68ba72" stroke-width="1.51"/><path d="M664,109L816,269L832,72Z" fill="#addda7" stroke="#addda7" stroke-width="1.51"/><path d="M816,269L658,425L862,380Z" fill="#98d592" stroke="#98d592" stroke-width="1.51"/><path d="M658,425L764,508L862,380Z" fill="#8fd18c" stroke="#8fd18c" stroke-width="1.51"/><path d="M505,-177L669,-109L771,-149Z" fill="#c9eac4" stroke="#c9eac4" stroke-width="1.51"/><path d="M696,957L677,1116L809,1132Z" fill="#59a461" stroke="#59a461" stroke-width="1.51"/><path d="M664,109L645,226L816,269Z" fill="#acdea6" stroke="#acdea6" stroke-width="1.51"/><path d="M764,508L708,706L823,678Z" fill="#78c57c" stroke="#78c57c" stroke-width="1.51"/><path d="M708,706L714,787L823,678Z" fill="#6ec077" stroke="#6ec077" stroke-width="1.51"/><path d="M800,-30L664,109L832,72Z" fill="#b5e1af" stroke="#b5e1af" stroke-width="1.51"/><path d="M645,-21L664,109L800,-30Z" fill="#bce4b6" stroke="#bce4b6" stroke-width="1.51"/><path d="M645,226L658,425L816,269Z" fill="#a2d99c" stroke="#a2d99c" stroke-width="1.51"/><path d="M714,787L777,923L822,856Z" fill="#63b36d" stroke="#63b36d" stroke-width="1.51"/><path d="M644,517L708,706L764,508Z" fill="#84cb83" stroke="#84cb83" stroke-width="1.51"/><path d="M771,-149L669,-109L800,-30Z" fill="#c0e5bb" stroke="#c0e5bb" stroke-width="1.51"/><path d="M720,1194L787,1218L809,1132Z" fill="#509657" stroke="#509657" stroke-width="1.51"/><path d="M677,1116L720,1194L809,1132Z" fill="#549c5c" stroke="#549c5c" stroke-width="1.51"/><path d="M669,-109L645,-21L800,-30Z" fill="#c1e6bc" stroke="#c1e6bc" stroke-width="1.51"/><path d="M714,787L696,957L777,923Z" fill="#64b26d" stroke="#64b26d" stroke-width="1.51"/><path d="M645,226L581,277L658,425Z" fill="#a7dca0" stroke="#a7dca0" stroke-width="1.51"/><path d="M658,425L644,517L764,508Z" fill="#90d18c" stroke="#90d18c" stroke-width="1.51"/><path d="M274,-166L363,-153L505,-177Z" fill="#dbf1d6" stroke="#dbf1d6" stroke-width="1.51"/><path d="M510,1057L677,1116L696,957Z" fill="#62a969" stroke="#62a969" stroke-width="1.51"/><path d="M644,517L567,652L708,706Z" fill="#83ca84" stroke="#83ca84" stroke-width="1.51"/><path d="M567,910L696,957L714,787Z" fill="#6ab572" stroke="#6ab572" stroke-width="1.51"/><path d="M677,1116L524,1220L720,1194Z" fill="#5a9b60" stroke="#5a9b60" stroke-width="1.51"/><path d="M508,828L567,910L714,787Z" fill="#72bb78" stroke="#72bb78" stroke-width="1.51"/><path d="M708,706L567,652L714,787Z" fill="#76c37d" stroke="#76c37d" stroke-width="1.51"/><path d="M567,652L508,828L714,787Z" fill="#77c27e" stroke="#77c27e" stroke-width="1.51"/><path d="M567,910L510,1057L696,957Z" fill="#69af70" stroke="#69af70" stroke-width="1.51"/><path d="M645,-21L567,9L664,109Z" fill="#c0e6ba" stroke="#c0e6ba" stroke-width="1.51"/><path d="M580,490L644,517L658,425Z" fill="#95d390" stroke="#95d390" stroke-width="1.51"/><path d="M567,9L580,115L664,109Z" fill="#bee5b7" stroke="#bee5b7" stroke-width="1.51"/><path d="M580,115L645,226L664,109Z" fill="#b7e2b0" stroke="#b7e2b0" stroke-width="1.51"/><path d="M510,1057L524,1220L677,1116Z" fill="#61a366" stroke="#61a366" stroke-width="1.51"/><path d="M581,277L531,447L658,425Z" fill="#a2d99c" stroke="#a2d99c" stroke-width="1.51"/><path d="M567,9L645,-21L669,-109Z" fill="#c6e8bf" stroke="#c6e8bf" stroke-width="1.51"/><path d="M505,-177L567,9L669,-109Z" fill="#cbeac5" stroke="#cbeac5" stroke-width="1.51"/><path d="M580,490L567,652L644,517Z" fill="#8ed08b" stroke="#8ed08b" stroke-width="1.51"/><path d="M531,447L580,490L658,425Z" fill="#9ad595" stroke="#9ad595" stroke-width="1.51"/><path d="M580,115L581,277L645,226Z" fill="#b3e1ac" stroke="#b3e1ac" stroke-width="1.51"/><path d="M439,781L508,828L567,652Z" fill="#7dc584" stroke="#7dc584" stroke-width="1.51"/><path d="M505,-177L383,34L567,9Z" fill="#cfecc9" stroke="#cfecc9" stroke-width="1.51"/><path d="M567,9L383,34L580,115Z" fill="#c6e8bf" stroke="#c6e8bf" stroke-width="1.51"/><path d="M383,34L401,166L580,115Z" fill="#c6e8be" stroke="#c6e8be" stroke-width="1.51"/><path d="M441,548L567,652L580,490Z" fill="#91d18f" stroke="#91d18f" stroke-width="1.51"/><path d="M531,447L441,548L580,490Z" fill="#9ad596" stroke="#9ad596" stroke-width="1.51"/><path d="M404,284L531,447L581,277Z" fill="#acdea5" stroke="#acdea5" stroke-width="1.51"/><path d="M580,115L401,166L581,277Z" fill="#bae4b3" stroke="#bae4b3" stroke-width="1.51"/><path d="M401,166L404,284L581,277Z" fill="#b9e3b1" stroke="#b9e3b1" stroke-width="1.51"/><path d="M387,1002L510,1057L567,910Z" fill="#6fb175" stroke="#6fb175" stroke-width="1.51"/><path d="M363,-153L383,34L505,-177Z" fill="#d6efd0" stroke="#d6efd0" stroke-width="1.51"/><path d="M404,284L389,435L531,447Z" fill="#abdda4" stroke="#abdda4" stroke-width="1.51"/><path d="M441,548L368,686L567,652Z" fill="#8ece8f" stroke="#8ece8f" stroke-width="1.51"/><path d="M368,686L439,781L567,652Z" fill="#85c989" stroke="#85c989" stroke-width="1.51"/><path d="M508,828L387,1002L567,910Z" fill="#74b77a" stroke="#74b77a" stroke-width="1.51"/><path d="M352,1143L394,1209L510,1057Z" fill="#6ba66f" stroke="#6ba66f" stroke-width="1.51"/><path d="M510,1057L394,1209L524,1220Z" fill="#66a16a" stroke="#66a16a" stroke-width="1.51"/><path d="M389,435L441,548L531,447Z" fill="#a0d89b" stroke="#a0d89b" stroke-width="1.51"/><path d="M439,781L387,1002L508,828Z" fill="#79bc80" stroke="#79bc80" stroke-width="1.51"/><path d="M387,1002L352,1143L510,1057Z" fill="#6fad74" stroke="#6fad74" stroke-width="1.51"/><path d="M363,-153L286,-19L383,34Z" fill="#d8f0d1" stroke="#d8f0d1" stroke-width="1.51"/><path d="M308,381L389,435L404,284Z" fill="#b2e0ab" stroke="#b2e0ab" stroke-width="1.51"/><path d="M276,786L387,1002L439,781Z" fill="#80bf85" stroke="#80bf85" stroke-width="1.51"/><path d="M389,435L261,505L441,548Z" fill="#a4d99f" stroke="#a4d99f" stroke-width="1.51"/><path d="M261,505L368,686L441,548Z" fill="#9ad499" stroke="#9ad499" stroke-width="1.51"/><path d="M368,686L276,786L439,781Z" fill="#87c98d" stroke="#87c98d" stroke-width="1.51"/><path d="M110,1219L-12,1260L227,1232Z" fill="#76a079" stroke="#76a079" stroke-width="1.51"/><path d="M-3,-141L154,-122L274,-166Z" fill="#e7f6e1" stroke="#e7f6e1" stroke-width="1.51"/><path d="M278,1121L352,1143L387,1002Z" fill="#73ac77" stroke="#73ac77" stroke-width="1.51"/><path d="M276,786L233,1007L387,1002Z" fill="#7ebb83" stroke="#7ebb83" stroke-width="1.51"/><path d="M383,34L209,118L401,166Z" fill="#cdebc6" stroke="#cdebc6" stroke-width="1.51"/><path d="M401,166L213,261L404,284Z" fill="#c1e6b9" stroke="#c1e6b9" stroke-width="1.51"/><path d="M213,261L308,381L404,284Z" fill="#bbe4b4" stroke="#bbe4b4" stroke-width="1.51"/><path d="M209,118L213,261L401,166Z" fill="#c9eac2" stroke="#c9eac2" stroke-width="1.51"/><path d="M233,1007L278,1121L387,1002Z" fill="#77b17c" stroke="#77b17c" stroke-width="1.51"/><path d="M352,1143L227,1232L394,1209Z" fill="#6da170" stroke="#6da170" stroke-width="1.51"/><path d="M261,505L213,716L368,686Z" fill="#98d298" stroke="#98d298" stroke-width="1.51"/><path d="M286,-19L209,118L383,34Z" fill="#d3eecd" stroke="#d3eecd" stroke-width="1.51"/><path d="M308,381L261,505L389,435Z" fill="#acdda7" stroke="#acdda7" stroke-width="1.51"/><path d="M274,-166L286,-19L363,-153Z" fill="#ddf2d7" stroke="#ddf2d7" stroke-width="1.51"/><path d="M278,1121L227,1232L352,1143Z" fill="#71a674" stroke="#71a674" stroke-width="1.51"/><path d="M213,716L276,786L368,686Z" fill="#8dcc91" stroke="#8dcc91" stroke-width="1.51"/><path d="M151,546L213,716L261,505Z" fill="#a1d7a0" stroke="#a1d7a0" stroke-width="1.51"/><path d="M103,840L233,1007L276,786Z" fill="#87c18c" stroke="#87c18c" stroke-width="1.51"/><path d="M274,-166L154,-122L286,-19Z" fill="#e0f3da" stroke="#e0f3da" stroke-width="1.51"/><path d="M171,367L261,505L308,381Z" fill="#b2e0ad" stroke="#b2e0ad" stroke-width="1.51"/><path d="M213,261L171,367L308,381Z" fill="#bce4b5" stroke="#bce4b5" stroke-width="1.51"/><path d="M151,546L135,695L213,716Z" fill="#9cd39d" stroke="#9cd39d" stroke-width="1.51"/><path d="M78,-6L209,118L286,-19Z" fill="#daf0d4" stroke="#daf0d4" stroke-width="1.51"/><path d="M154,-122L78,-6L286,-19Z" fill="#e0f3db" stroke="#e0f3db" stroke-width="1.51"/><path d="M209,118L160,139L213,261Z" fill="#ceecc7" stroke="#ceecc7" stroke-width="1.51"/><path d="M110,1219L227,1232L278,1121Z" fill="#74a477" stroke="#74a477" stroke-width="1.51"/><path d="M79,1071L110,1219L278,1121Z" fill="#79ac7c" stroke="#79ac7c" stroke-width="1.51"/><path d="M233,1007L79,1071L278,1121Z" fill="#7bb27f" stroke="#7bb27f" stroke-width="1.51"/><path d="M213,716L103,840L276,786Z" fill="#8eca93" stroke="#8eca93" stroke-width="1.51"/><path d="M103,840L85,1005L233,1007Z" fill="#85bc8a" stroke="#85bc8a" stroke-width="1.51"/><path d="M171,367L151,546L261,505Z" fill="#afdeaa" stroke="#afdeaa" stroke-width="1.51"/><path d="M78,-6L160,139L209,118Z" fill="#d8f0d1" stroke="#d8f0d1" stroke-width="1.51"/><path d="M135,695L103,840L213,716Z" fill="#92cd98" stroke="#92cd98" stroke-width="1.51"/><path d="M85,1005L79,1071L233,1007Z" fill="#81b685" stroke="#81b685" stroke-width="1.51"/><path d="M72,241L171,367L213,261Z" fill="#c5e8be" stroke="#c5e8be" stroke-width="1.51"/><path d="M160,139L72,241L213,261Z" fill="#cdebc6" stroke="#cdebc6" stroke-width="1.51"/><path d="M-41,406L-66,485L151,546Z" fill="#b7e1b2" stroke="#b7e1b2" stroke-width="1.51"/><path d="M-41,406L151,546L171,367Z" fill="#b8e2b3" stroke="#b8e2b3" stroke-width="1.51"/><path d="M72,241L-41,406L171,367Z" fill="#c4e8be" stroke="#c4e8be" stroke-width="1.51"/><path d="M-8,917L85,1005L103,840Z" fill="#8bc091" stroke="#8bc091" stroke-width="1.51"/><path d="M-18,711L135,695L151,546Z" fill="#a0d5a2" stroke="#a0d5a2" stroke-width="1.51"/><path d="M78,-6L-36,174L160,139Z" fill="#daf1d4" stroke="#daf1d4" stroke-width="1.51"/><path d="M-36,174L72,241L160,139Z" fill="#d3eecd" stroke="#d3eecd" stroke-width="1.51"/><path d="M-18,711L103,840L135,695Z" fill="#96cf9b" stroke="#96cf9b" stroke-width="1.51"/><path d="M-66,485L-18,711L151,546Z" fill="#abdba9" stroke="#abdba9" stroke-width="1.51"/><path d="M-3,-141L78,-6L154,-122Z" fill="#e7f6e2" stroke="#e7f6e2" stroke-width="1.51"/><path d="M-36,174L24,237L72,241Z" fill="#d2edcb" stroke="#d2edcb" stroke-width="1.51"/><path d="M24,237L-41,406L72,241Z" fill="#caeac4" stroke="#caeac4" stroke-width="1.51"/><path d="M79,1071L-12,1144L110,1219Z" fill="#7eac81" stroke="#7eac81" stroke-width="1.51"/><path d="M-58,10L-36,174L78,-6Z" fill="#e0f3da" stroke="#e0f3da" stroke-width="1.51"/><path d="M-18,711L-49,835L103,840Z" fill="#95cb9b" stroke="#95cb9b" stroke-width="1.51"/><path d="M-12,1144L-12,1260L110,1219Z" fill="#7ba57e" stroke="#7ba57e" stroke-width="1.51"/><path d="M-49,835L-8,917L103,840Z" fill="#90c696" stroke="#90c696" stroke-width="1.51"/><path d="M-3,-141L-58,10L78,-6Z" fill="#e8f6e2" stroke="#e8f6e2" stroke-width="1.51"/><path d="M-117,1067L79,1071L85,1005Z" fill="#85b689" stroke="#85b689" stroke-width="1.51"/><path d="M-8,917L-117,1067L85,1005Z" fill="#89bb8e" stroke="#89bb8e" stroke-width="1.51"/><path d="M-117,1067L-12,1144L79,1071Z" fill="#83b386" stroke="#83b386" stroke-width="1.51"/><path d="M-66,485L-143,524L-18,711Z" fill="#afdcad" stroke="#afdcad" stroke-width="1.51"/><path d="M-36,174L-144,290L24,237Z" fill="#d2eecc" stroke="#d2eecc" stroke-width="1.51"/><path d="M-144,290L-41,406L24,237Z" fill="#caeac5" stroke="#caeac5" stroke-width="1.51"/><path d="M-143,524L-161,713L-18,711Z" fill="#a7d8a9" stroke="#a7d8a9" stroke-width="1.51"/><path d="M-176,1276L-12,1260L-12,1144Z" fill="#7da480" stroke="#7da480" stroke-width="1.51"/><path d="M-185,934L-117,1067L-8,917Z" fill="#8dbe92" stroke="#8dbe92" stroke-width="1.51"/><path d="M-132,-8L-58,10L-3,-141Z" fill="#eaf7e5" stroke="#eaf7e5" stroke-width="1.51"/><path d="M-206,-173L-132,-8L-3,-141Z" fill="#eef9ea" stroke="#eef9ea" stroke-width="1.51"/><path d="M-58,10L-176,174L-36,174Z" fill="#def2d8" stroke="#def2d8" stroke-width="1.51"/><path d="M-161,713L-49,835L-18,711Z" fill="#9bd0a0" stroke="#9bd0a0" stroke-width="1.51"/><path d="M-117,1067L-176,1276L-12,1144Z" fill="#81ac85" stroke="#81ac85" stroke-width="1.51"/><path d="M-49,835L-185,934L-8,917Z" fill="#91c497" stroke="#91c497" stroke-width="1.51"/><path d="M-132,-8L-176,174L-58,10Z" fill="#e3f4de" stroke="#e3f4de" stroke-width="1.51"/><path d="M-161,713L-199,814L-49,835Z" fill="#9acea0" stroke="#9acea0" stroke-width="1.51"/><path d="M-118,450L-66,485L-41,406Z" fill="#bde3b8" stroke="#bde3b8" stroke-width="1.51"/><path d="M-144,290L-118,450L-41,406Z" fill="#c5e7c0" stroke="#c5e7c0" stroke-width="1.51"/><path d="M-176,174L-144,290L-36,174Z" fill="#d6efd1" stroke="#d6efd1" stroke-width="1.51"/><path d="M-199,814L-185,934L-49,835Z" fill="#96c89b" stroke="#96c89b" stroke-width="1.51"/><path d="M-118,450L-143,524L-66,485Z" fill="#bae2b5" stroke="#bae2b5" stroke-width="1.51"/><path d="M-144,290L-143,524L-118,450Z" fill="#c1e6bd" stroke="#c1e6bd" stroke-width="1.51"/><path d="M-185,934L-176,1276L-117,1067Z" fill="#87b58b" stroke="#87b58b" stroke-width="1.51"/><path d="M-206,-173L-176,174L-132,-8Z" fill="#eaf7e5" stroke="#eaf7e5" stroke-width="1.51"/><path d="M-199,814L-161,713L-143,524Z" fill="#a5d7a8" stroke="#a5d7a8" stroke-width="1.51"/><path d="M-144,290L-176,174L-143,524Z" fill="#ccebc7" stroke="#ccebc7" stroke-width="1.51"/><path d="M-176,174L-199,814L-143,524Z" fill="#bae2b6" stroke="#bae2b6" stroke-width="1.51"/><path d="M-206,-173L-199,814L-176,174Z" fill="#d3edcd" stroke="#d3edcd" stroke-width="1.51"/><path d="M-185,934L-199,814L-176,1276Z" fill="#8dbc92" stroke="#8dbc92" stroke-width="1.51"/></svg>